<svg width="15" height="15" viewBox="0 0 15 15" fill="none" xmlns="http://www.w3.org/2000/svg">
<path d="M7.00547 3.41172C5.01797 3.41172 3.41484 5.01484 3.41484 7.00234C3.41484 8.98984 5.01797 10.593 7.00547 10.593C8.99297 10.593 10.5961 8.98984 10.5961 7.00234C10.5961 5.01484 8.99297 3.41172 7.00547 3.41172ZM7.00547 9.33672C5.72109 9.33672 4.67109 8.28984 4.67109 7.00234C4.67109 5.71484 5.71797 4.66797 7.00547 4.66797C8.29297 4.66797 9.33984 5.71484 9.33984 7.00234C9.33984 8.28984 8.28984 9.33672 7.00547 9.33672V9.33672ZM11.5805 3.26484C11.5805 3.73047 11.2055 4.10234 10.743 4.10234C10.2773 4.10234 9.90547 3.72734 9.90547 3.26484C9.90547 2.80234 10.2805 2.42734 10.743 2.42734C11.2055 2.42734 11.5805 2.80234 11.5805 3.26484ZM13.9586 4.11484C13.9055 2.99297 13.6492 1.99922 12.8273 1.18047C12.0086 0.361719 11.0148 0.105469 9.89297 0.0492187C8.73672 -0.0164062 5.27109 -0.0164062 4.11484 0.0492187C2.99609 0.102344 2.00234 0.358594 1.18047 1.17734C0.358594 1.99609 0.105469 2.98984 0.0492187 4.11172C-0.0164062 5.26797 -0.0164062 8.73359 0.0492187 9.88984C0.102344 11.0117 0.358594 12.0055 1.18047 12.8242C2.00234 13.643 2.99297 13.8992 4.11484 13.9555C5.27109 14.0211 8.73672 14.0211 9.89297 13.9555C11.0148 13.9023 12.0086 13.6461 12.8273 12.8242C13.6461 12.0055 13.9023 11.0117 13.9586 9.88984C14.0242 8.73359 14.0242 5.27109 13.9586 4.11484V4.11484ZM12.4648 11.1305C12.2211 11.743 11.7492 12.2148 11.1336 12.4617C10.2117 12.8273 8.02422 12.743 7.00547 12.743C5.98672 12.743 3.79609 12.8242 2.87734 12.4617C2.26484 12.218 1.79297 11.7461 1.54609 11.1305C1.18047 10.2086 1.26484 8.02109 1.26484 7.00234C1.26484 5.98359 1.18359 3.79297 1.54609 2.87422C1.78984 2.26172 2.26172 1.78984 2.87734 1.54297C3.79922 1.17734 5.98672 1.26172 7.00547 1.26172C8.02422 1.26172 10.2148 1.18047 11.1336 1.54297C11.7461 1.78672 12.218 2.25859 12.4648 2.87422C12.8305 3.79609 12.7461 5.98359 12.7461 7.00234C12.7461 8.02109 12.8305 10.2117 12.4648 11.1305Z" data-original="#000000" class="hovered-path active-path" data-old_color="#000000" fill="#FFFFFF" />
</svg>
