<svg width="36" height="35" viewBox="0 0 36 35" fill="none" xmlns="http://www.w3.org/2000/svg">
<path d="M19.6608 11.8851V14.5838L19.2034 15.3099H20.1093H20.1608H20.6608V14.8757C21.1424 14.1354 21.7834 13.2976 22.7238 12.6221C23.7419 11.8908 25.1373 11.3312 27.1155 11.3312C29.5401 11.3312 31.6164 12.1337 33.0913 13.7611C34.5709 15.3936 35.5 17.9168 35.5 21.4595V34.4998H28.7835V22.3666C28.7835 20.735 28.4989 19.2845 27.7913 18.2279C27.0617 17.1386 25.9212 16.5266 24.3739 16.5266C21.9669 16.5266 20.5539 18.1871 19.9502 19.7118C19.7074 20.3142 19.6606 21.1054 19.6606 21.8125V34.5H12.9461L12.9479 34.0779C12.9505 33.4884 12.9541 32.6438 12.958 31.6233C12.9659 29.5824 12.9754 26.838 12.9818 24.0244C12.993 19.0124 12.9944 13.7564 12.9581 11.8851H19.6608ZM0.955299 11.8856H7.67228V34.5H0.955299V11.8856ZM7.14396 1.52758C7.78254 2.15576 8.15713 3.04493 8.18088 4.0855C8.17956 5.09038 7.80921 5.97628 7.15785 6.61164C6.50624 7.24724 5.54475 7.65947 4.31479 7.65947H4.31455H4.26441C1.94707 7.65947 0.5 6.06642 0.5 4.08012C0.5 3.04969 0.881666 2.16262 1.53916 1.53199C2.19702 0.901009 3.15963 0.5 4.36586 0.5C5.57079 0.5 6.50587 0.899881 7.14396 1.52758Z" data-original="#000000" class="active-path" data-old_color="#000000" fill="#FFFFFF"/>
</svg>
