<svg width="16" height="12" viewBox="0 0 16 12" fill="none" xmlns="http://www.w3.org/2000/svg">
<path d="M8.051 0H8.14C8.962 0.003 13.127 0.0330002 14.25 0.335C14.5895 0.427169 14.8989 0.606822 15.1472 0.856008C15.3955 1.10519 15.574 1.41518 15.665 1.755C15.766 2.135 15.837 2.638 15.885 3.157L15.895 3.261L15.917 3.521L15.925 3.625C15.99 4.539 15.998 5.395 15.999 5.582V5.657C15.998 5.851 15.989 6.765 15.917 7.717L15.909 7.822L15.9 7.926C15.85 8.498 15.776 9.066 15.665 9.484C15.5743 9.82395 15.3958 10.1341 15.1475 10.3833C14.8991 10.6325 14.5896 10.8121 14.25 10.904C13.09 11.216 8.681 11.238 8.07 11.239H7.928C7.619 11.239 6.341 11.233 5.001 11.187L4.831 11.181L4.744 11.177L4.573 11.17L4.402 11.163C3.292 11.114 2.235 11.035 1.748 10.903C1.40849 10.8112 1.09907 10.6318 0.850724 10.3827C0.602384 10.1337 0.423847 9.82377 0.333 9.484C0.222 9.067 0.148 8.498 0.098 7.926L0.09 7.821L0.082 7.717C0.0326476 7.0394 0.00529987 6.36037 0 5.681L0 5.559C0.002 5.344 0.01 4.601 0.064 3.781L0.071 3.678L0.074 3.626L0.082 3.522L0.104 3.262L0.114 3.158C0.162 2.639 0.233 2.135 0.334 1.756C0.424694 1.41605 0.603162 1.10591 0.851513 0.856682C1.09986 0.607454 1.40937 0.427892 1.749 0.336C2.236 0.206 3.293 0.126 4.403 0.0760001L4.573 0.0690001L4.745 0.0630001L4.831 0.0600001L5.002 0.0530001C5.9537 0.0220413 6.9058 0.00470609 7.858 0.00100005H8.051V0ZM6.4 3.21V8.028L10.557 5.62L6.4 3.21Z" data-original="#000000" class="active-path" data-old_color="#000000" fill="#FFFFFF"/>
</svg>
