<svg width="412" height="461" viewBox="0 0 412 461" fill="none" xmlns="http://www.w3.org/2000/svg">
<path d="M369.959 410.709L412 0H0L42.0408 410.709L206 461L369.959 410.709Z" fill="#F27638"/>
<path d="M374.163 33.5273H206V427.473L340.531 385.564L374.163 33.5273Z" fill="#F9874F"/>
<path d="M311.102 343.655L206 372.991L205.542 372.863L100.898 343.655L93.1679 264.027H144.067L147.143 305.936L206 322.7L264.857 305.936L271.42 238.882H206H142.221H90.7269L75.6735 83.8182H206H336.327L331.444 134.109H281.674H206H134.531L138.53 188.591H206H276.342H326.155L311.102 343.655Z" fill="#F5F5F5"/>
<path d="M331.602 134.109L336.327 83.8182H206V134.109H283.437H331.602Z" fill="#FBFBFE"/>
<path d="M206 372.991L311.102 343.655L326.145 188.591H269.061H206V238.882H271.393L264.857 305.936L206 322.7L206 372.991Z" fill="#FBFBFE"/>
</svg>
