<svg width="1700" height="461" viewBox="0 0 1700 461" fill="none" xmlns="http://www.w3.org/2000/svg">
<path d="M369.959 410.709L412 0H0L42.0408 410.709L206 461L369.959 410.709Z" fill="#F27638"/>
<path d="M374.163 33.5273H206V427.473L340.531 385.564L374.163 33.5273Z" fill="#F9874F"/>
<path d="M311.102 343.655L206 372.991L205.542 372.863L100.898 343.655L93.1679 264.027H144.067L147.143 305.936L206 322.7L264.857 305.936L271.42 238.882H206H142.221H90.7269L75.6735 83.8182H206H336.327L331.444 134.109H281.674H206H134.531L138.53 188.591H206H276.342H326.155L311.102 343.655Z" fill="#F5F5F5"/>
<path d="M331.602 134.109L336.327 83.8182H206V134.109H283.437H331.602Z" fill="#FBFBFE"/>
<path d="M206 372.991L311.102 343.655L326.145 188.591H269.061H206V238.882H271.393L264.857 305.936L206 322.7L206 372.991Z" fill="#FBFBFE"/>
<path d="M471 291.421H505.002V225.218H574.026V291.421H607.949V131.156H574.026V197.281H505.002V131.156H471V291.421Z" fill="#FBFBFE"/>
<path d="M629.858 159.093H679.094V291.421H712.703V159.093H761.939V131.156H629.858V159.093Z" fill="#FBFBFE"/>
<path d="M783.69 131.156V291.421H816.671V186.717H818.006L859.625 290.639H882.083L923.702 187.108H925.037V291.421H958.018V131.156H916.085L871.796 238.834H869.912L825.623 131.156H783.69Z" fill="#FBFBFE"/>
<path d="M986.032 291.421H1088.98V263.484H1020.03V131.156H986.032V291.421Z" fill="#FBFBFE"/>
<path d="M1165.21 339C1199.68 339 1224.18 323.349 1224.18 292.595V171.222H1190.96V191.412H1189.71C1185.23 181.63 1175.42 169.657 1155.24 169.657C1128.77 169.657 1106.39 190.16 1106.39 231.087C1106.39 271.075 1128.14 289.7 1155.31 289.7C1174.55 289.7 1185.31 280.074 1189.71 270.136H1191.12V292.125C1191.12 308.637 1180.52 315.054 1165.99 315.054C1151.23 315.054 1143.77 308.637 1141.02 301.36L1110.08 305.507C1114.09 324.445 1132.7 339 1165.21 339ZM1165.92 264.658C1149.5 264.658 1140.55 251.668 1140.55 230.93C1140.55 210.506 1149.35 196.185 1165.92 196.185C1182.17 196.185 1191.28 209.88 1191.28 230.93C1191.28 252.137 1182.01 264.658 1165.92 264.658Z" fill="#FBFBFE"/>
<path d="M1328.15 240.243C1328.23 256.363 1317.16 264.815 1305.14 264.815C1292.5 264.815 1284.33 255.972 1284.25 241.808V171.222H1250.8V247.755C1250.88 275.849 1267.37 292.986 1291.64 292.986C1309.77 292.986 1322.81 283.674 1328.23 269.588H1329.48V291.421H1361.6V171.222H1328.15V240.243Z" fill="#FBFBFE"/>
<path d="M1388.36 291.421H1421.81V171.222H1388.36V291.421ZM1405.16 155.728C1415.14 155.728 1423.3 148.137 1423.3 138.825C1423.3 129.591 1415.14 122 1405.16 122C1395.27 122 1387.1 129.591 1387.1 138.825C1387.1 148.137 1395.27 155.728 1405.16 155.728Z" fill="#FBFBFE"/>
<path d="M1493.05 293.378C1512.53 293.378 1522.66 282.187 1527.29 272.171H1528.71V291.421H1561.69V131.156H1528.31V191.412H1527.29C1522.82 181.63 1513.16 169.657 1492.98 169.657C1466.51 169.657 1444.13 190.16 1444.13 231.478C1444.13 271.701 1465.57 293.378 1493.05 293.378ZM1503.66 266.849C1487.24 266.849 1478.29 252.294 1478.29 231.322C1478.29 210.506 1487.09 196.185 1503.66 196.185C1519.91 196.185 1529.02 209.88 1529.02 231.322C1529.02 252.763 1519.75 266.849 1503.66 266.849Z" fill="#FBFBFE"/>
<path d="M1644.16 293.769C1674 293.769 1694.1 279.292 1698.81 256.989L1667.87 254.955C1664.5 264.11 1655.86 268.884 1644.71 268.884C1627.98 268.884 1617.38 257.85 1617.38 239.93V239.851H1699.52V230.696C1699.52 189.847 1674.7 169.657 1642.82 169.657C1607.33 169.657 1584.32 194.777 1584.32 231.869C1584.32 269.979 1607.01 293.769 1644.16 293.769ZM1617.38 219.192C1618.09 205.498 1628.53 194.542 1643.37 194.542C1657.9 194.542 1667.95 204.872 1668.03 219.192H1617.38Z" fill="#FBFBFE"/>
</svg>
